<svg xmlns="http://www.w3.org/2000/svg" xmlns:xlink="http://www.w3.org/1999/xlink" viewBox="0 0 1600 800"><defs><style>.cls-1{fill:none;}.cls-2{clip-path:url(#clip-path);}.cls-3{fill:#007cb2;}.cls-4{clip-path:url(#clip-path-2);}.cls-5{fill:#efb93f;}.cls-6{fill:#bbaa5e;}.cls-7{fill:#f5efca;}.cls-8{fill:#7f6e5d;}.cls-9{fill:#cbb292;}.cls-10{fill:#71c285;}.cls-11{fill:#f3d55b;}.cls-12{fill:#68ad77;}.cls-13{fill:#ddc357;}.cls-14{fill:#b0d3f0;}.cls-15{fill:#556080;}.cls-16{fill:#444e66;}.cls-17{fill:#d25627;}.cls-18{fill:#802d40;}.cls-19{fill:#fff;}.cls-20{fill:#50508a;}.cls-21{fill:#8697cb;}.cls-22{fill:#90bae1;}.cls-23{fill:#ecf0f1;}.cls-24{fill:#5e5146;}.cls-25{fill:#e64c3c;}.cls-26{fill:#c03a2b;}.cls-27{fill:#f0785a;}.cls-28{fill:#b35a5b;}.cls-29{fill:#ed7161;}.cls-30{fill:#f0c419;}.cls-31{fill:#d36259;}.cls-32{fill:#cb8252;}.cls-33{fill:#24ae5f;}.cls-34{fill:#afb9d2;}.cls-35{fill:#c7cfe2;}.cls-36{fill:#8f96ac;}.cls-37{fill:#9fa7bf;}.cls-38{fill:#707487;}.cls-39{fill:#ff757c;}.cls-40{fill:#666;}.cls-41{fill:#fed198;}.cls-42{fill:#f0b97d;}.cls-43{fill:#f1f1f1;}.cls-44{fill:#15bdb1;}.cls-45{fill:#377bb9;}.cls-46{fill:#fbb429;}.cls-47{fill:#20d0c2;}.cls-48{fill:#c8cacc;}.cls-49{fill:#807d7d;}.cls-50{fill:#f5a209;}.cls-51{fill:#0e7886;}.cls-52{fill:#ff5b61;}.cls-53{fill:#d0d1d4;}.cls-54{fill:#ffca4f;}.cls-55{fill:#333;}.cls-56{fill:#324a5e;}.cls-57{fill:#84dbff;}.cls-58{fill:#ffd05b;}.cls-59{fill:#acb3ba;}.cls-60{fill:#e6e9ee;}.cls-61{fill:#315b42;}.cls-62{fill:#5b314c;}.cls-63{fill:#5b4c31;}</style><clipPath id="clip-path"><rect class="cls-1" x="700" y="-1" width="900" height="801"/></clipPath><clipPath id="clip-path-2"><rect class="cls-1" y="-1" width="900" height="801" transform="translate(900 799) rotate(-180)"/></clipPath></defs><title>diagram-jumbotron</title><g id="Background"><g class="cls-2"><rect class="cls-3" x="822.18" y="-377.82" width="1555.63" height="1555.63" transform="translate(185.79 1248.53) rotate(-45)"/></g><g class="cls-4"><rect class="cls-5" x="-777.82" y="-377.82" width="1555.63" height="1555.63" transform="translate(-282.84 117.16) rotate(-45)"/></g><polygon class="cls-6" points="800 100 900 200 900 600 800 700 700 600 700 200 800 100"/></g><g id="Layer_1" data-name="Layer 1"><path class="cls-7" d="M1201.38,433h-1.52a10.56,10.56,0,0,1-10.62-10.5,10.62,10.62,0,0,1-21.24,0,10.62,10.62,0,0,1-21.24,0,10.56,10.56,0,0,1-10.62,10.5h-1.52A10.56,10.56,0,0,1,1124,422.5V490h88V422.5A10.56,10.56,0,0,1,1201.38,433Z"/><rect class="cls-8" x="1130" y="441" width="47" height="39"/><path class="cls-9" d="M1178,481h-50V439h50Zm-47-3h44V442h-44Z"/><path class="cls-9" d="M1137.58,454.29a1.51,1.51,0,0,1-1.07-2.58l6-6a1.51,1.51,0,0,1,2.13,2.13l-6,6A1.5,1.5,0,0,1,1137.58,454.29Z"/><path class="cls-9" d="M1137.58,461.84a1.51,1.51,0,0,1-1.07-2.58l3-3a1.51,1.51,0,1,1,2.13,2.13l-3,3A1.5,1.5,0,0,1,1137.58,461.84Z"/><path class="cls-9" d="M1143.61,455.8a1.58,1.58,0,0,1-1.07-.44,1.52,1.52,0,0,1-.44-1.07,1.51,1.51,0,1,1,1.51,1.51Z"/><path class="cls-9" d="M1146.63,452.78a1.51,1.51,0,0,1-1.07-2.58l4.53-4.53a1.51,1.51,0,1,1,2.13,2.13l-4.53,4.53A1.5,1.5,0,0,1,1146.63,452.78Z"/><path class="cls-9" d="M1137.58,469.38a1.51,1.51,0,0,1-1.07-2.58l13.58-13.58a1.51,1.51,0,1,1,2.13,2.13l-13.58,13.58A1.5,1.5,0,0,1,1137.58,469.38Z"/><path class="cls-9" d="M1154.17,452.78a1.48,1.48,0,0,1-1.07-.45,1.52,1.52,0,0,1-.44-1.06,1.51,1.51,0,1,1,1.51,1.51Z"/><path class="cls-9" d="M1136.06,486h-1.5a1.5,1.5,0,0,1,0-3h1.5a1.5,1.5,0,0,1,0,3Z"/><path class="cls-9" d="M1130,486h-1.5a1.5,1.5,0,0,1,0-3h1.5a1.5,1.5,0,0,1,0,3Z"/><path class="cls-9" d="M1140.59,490h-1.5a1.5,1.5,0,0,1,0-3h1.5a1.5,1.5,0,0,1,0,3Z"/><path class="cls-9" d="M1128.52,490H1127a1.5,1.5,0,0,1,0-3h1.5a1.5,1.5,0,0,1,0,3Z"/><path class="cls-9" d="M1134.56,490h-1.5a1.5,1.5,0,0,1,0-3h1.5a1.5,1.5,0,0,1,0,3Z"/><path class="cls-9" d="M1148.13,486h-1.5a1.5,1.5,0,0,1,0-3h1.5a1.5,1.5,0,0,1,0,3Z"/><path class="cls-9" d="M1142.1,486h-1.5a1.5,1.5,0,0,1,0-3h1.5a1.5,1.5,0,0,1,0,3Z"/><path class="cls-9" d="M1146.63,490h-1.5a1.5,1.5,0,0,1,0-3h1.5a1.5,1.5,0,0,1,0,3Z"/><path class="cls-9" d="M1160.2,486h-1.5a1.5,1.5,0,0,1,0-3h1.5a1.5,1.5,0,0,1,0,3Z"/><path class="cls-9" d="M1154.17,486h-1.5a1.5,1.5,0,0,1,0-3h1.5a1.5,1.5,0,0,1,0,3Z"/><path class="cls-9" d="M1164.73,490h-1.5a1.5,1.5,0,0,1,0-3h1.5a1.5,1.5,0,0,1,0,3Z"/><path class="cls-9" d="M1152.66,490h-1.5a1.5,1.5,0,0,1,0-3h1.5a1.5,1.5,0,0,1,0,3Z"/><path class="cls-9" d="M1158.69,490h-1.5a1.5,1.5,0,0,1,0-3h1.5a1.5,1.5,0,0,1,0,3Z"/><path class="cls-9" d="M1172.27,486h-1.5a1.5,1.5,0,0,1,0-3h1.5a1.5,1.5,0,0,1,0,3Z"/><path class="cls-9" d="M1166.24,486h-1.5a1.5,1.5,0,0,1,0-3h1.5a1.5,1.5,0,0,1,0,3Z"/><path class="cls-9" d="M1170.76,490h-1.5a1.5,1.5,0,0,1,0-3h1.5a1.5,1.5,0,0,1,0,3Z"/><path class="cls-9" d="M1178.31,486h-1.5a1.5,1.5,0,0,1,0-3h1.5a1.5,1.5,0,0,1,0,3Z"/><path class="cls-9" d="M1176.8,490h-1.5a1.5,1.5,0,0,1,0-3h1.5a1.5,1.5,0,0,1,0,3Z"/><path class="cls-10" d="M1149.6,403H1145a22.2,22.2,0,0,0-21.31,16.44c-.33,1.19.13.56.42.56H1168V403Z"/><path class="cls-11" d="M1192,420h19c.27,0,.6.27.39-.53v0A21.8,21.8,0,0,0,1192,403.07V403h-24v17h24Z"/><path class="cls-11" d="M1168,420h-21.64a20.7,20.7,0,0,1,20.37-17H1168Z"/><path class="cls-10" d="M1189.64,420H1168V403h1.27a20.7,20.7,0,0,1,20.37,17Z"/><path class="cls-12" d="M1136.44,433h-1.88A10.56,10.56,0,0,1,1124,422.44v-3.2a.24.24,0,0,1,.24-.24H1147v3.44A10.56,10.56,0,0,1,1136.44,433Z"/><path class="cls-13" d="M1157.5,433.58h0A10.53,10.53,0,0,1,1147,423v-3h21v3A10.53,10.53,0,0,1,1157.5,433.58Z"/><path class="cls-12" d="M1178.5,433.58h0A10.53,10.53,0,0,1,1168,423v-3h21v3A10.53,10.53,0,0,1,1178.5,433.58Z"/><path class="cls-13" d="M1201.44,433h-1.88A10.56,10.56,0,0,1,1189,422.44V419h22.76a.24.24,0,0,1,.24.24v3.2A10.56,10.56,0,0,1,1201.44,433Z"/><path class="cls-8" d="M1206,489h-23V450.53a11.41,11.41,0,0,1,11.5-11.31h0a11.41,11.41,0,0,1,11.5,11.31Z"/><path class="cls-9" d="M1207,491h-26V451.35a13,13,0,1,1,26-.32Zm-23-4h20V450.36a10,10,0,0,0-20-.32Z"/><rect class="cls-9" x="1183" y="466" width="23" height="3"/><rect class="cls-14" x="1327" y="603" width="94" height="70"/><rect class="cls-15" x="1324" y="598" width="100" height="7"/><rect class="cls-15" x="1324" y="605" width="3" height="69"/><rect class="cls-15" x="1421" y="605" width="3" height="69"/><rect class="cls-16" x="1331" y="593" width="87" height="5"/><rect class="cls-17" x="1326" y="675" width="30" height="15"/><path class="cls-17" d="M1357,692h-33V674h33Zm-30-3h27V677h-27Z"/><rect class="cls-17" x="1393" y="675" width="30" height="15"/><path class="cls-17" d="M1424,692h-33V674h33Zm-30-3h27V677h-27Z"/><path class="cls-18" d="M1335.72,683H1334a1.23,1.23,0,0,1-1.67-1.29A1.72,1.72,0,0,1,1334,680h1.67a1.72,1.72,0,0,1,1.67,1.71A1.23,1.23,0,0,1,1335.72,683Z"/><path class="cls-18" d="M1329,683h-1.67a1.23,1.23,0,0,1-1.67-1.29,1.72,1.72,0,0,1,1.67-1.71H1329a1.72,1.72,0,0,1,1.67,1.71A1.23,1.23,0,0,1,1329,683Z"/><path class="cls-18" d="M1340.74,688h-1.67c-.93.4-1.67-.35-1.67-1.27a1.76,1.76,0,0,1,1.67-1.73h1.67a1.76,1.76,0,0,1,1.67,1.73C1342.41,687.65,1341.66,688.4,1340.74,688Z"/><path class="cls-18" d="M1327.35,688h-1.67c-.93.4-1.67-.35-1.67-1.27a1.76,1.76,0,0,1,1.67-1.73h1.67a1.76,1.76,0,0,1,1.67,1.73C1329,687.65,1328.27,688.4,1327.35,688Z"/><path class="cls-18" d="M1334,688h-1.67c-.93.4-1.67-.35-1.67-1.27a1.76,1.76,0,0,1,1.67-1.73H1334a1.76,1.76,0,0,1,1.67,1.73C1335.72,687.65,1335,688.4,1334,688Z"/><path class="cls-18" d="M1349.11,683h-1.67a1.23,1.23,0,0,1-1.67-1.29,1.72,1.72,0,0,1,1.67-1.71h1.67a1.72,1.72,0,0,1,1.67,1.71A1.23,1.23,0,0,1,1349.11,683Z"/><path class="cls-18" d="M1355.8,683h-1.67a1.23,1.23,0,0,1-1.67-1.29,1.72,1.72,0,0,1,1.67-1.71h1.67a1.72,1.72,0,0,1,1.67,1.71A1.23,1.23,0,0,1,1355.8,683Z"/><path class="cls-18" d="M1342.41,683h-1.67a1.23,1.23,0,0,1-1.67-1.29,1.72,1.72,0,0,1,1.67-1.71h1.67a1.72,1.72,0,0,1,1.67,1.71A1.23,1.23,0,0,1,1342.41,683Z"/><path class="cls-18" d="M1354.13,688h-1.67c-.93.4-1.67-.35-1.67-1.27a1.76,1.76,0,0,1,1.67-1.73h1.67a1.76,1.76,0,0,1,1.67,1.73C1355.8,687.65,1355.05,688.4,1354.13,688Z"/><path class="cls-18" d="M1347.43,688h-1.67c-.93.4-1.67-.35-1.67-1.27a1.76,1.76,0,0,1,1.67-1.73h1.67a1.76,1.76,0,0,1,1.67,1.73C1349.11,687.65,1348.36,688.4,1347.43,688Z"/><path class="cls-18" d="M1339.06,678h-1.67a1.25,1.25,0,0,1-1.67-1.31,1.69,1.69,0,0,1,1.67-1.69h1.67a1.69,1.69,0,0,1,1.67,1.69A1.25,1.25,0,0,1,1339.06,678Z"/><path class="cls-18" d="M1332.37,678h-1.67a1.25,1.25,0,0,1-1.67-1.31,1.69,1.69,0,0,1,1.67-1.69h1.67a1.69,1.69,0,0,1,1.67,1.69A1.25,1.25,0,0,1,1332.37,678Z"/><path class="cls-18" d="M1352.45,678h-1.67a1.25,1.25,0,0,1-1.67-1.31,1.69,1.69,0,0,1,1.67-1.69h1.67a1.69,1.69,0,0,1,1.67,1.69A1.25,1.25,0,0,1,1352.45,678Z"/><path class="cls-18" d="M1345.76,678h-1.67a1.25,1.25,0,0,1-1.67-1.31,1.69,1.69,0,0,1,1.67-1.69h1.67a1.69,1.69,0,0,1,1.67,1.69A1.25,1.25,0,0,1,1345.76,678Z"/><path class="cls-18" d="M1402.67,683H1401a1.23,1.23,0,0,1-1.67-1.29A1.72,1.72,0,0,1,1401,680h1.67a1.72,1.72,0,0,1,1.67,1.71A1.23,1.23,0,0,1,1402.67,683Z"/><path class="cls-18" d="M1396,683h-1.67a1.23,1.23,0,0,1-1.67-1.29,1.72,1.72,0,0,1,1.67-1.71H1396a1.72,1.72,0,0,1,1.67,1.71A1.23,1.23,0,0,1,1396,683Z"/><path class="cls-18" d="M1407.69,688H1406c-.93.4-1.67-.35-1.67-1.27A1.76,1.76,0,0,1,1406,685h1.67a1.76,1.76,0,0,1,1.67,1.73C1409.36,687.65,1408.61,688.4,1407.69,688Z"/><path class="cls-18" d="M1394.3,688h-1.67c-.93.4-1.67-.35-1.67-1.27a1.76,1.76,0,0,1,1.67-1.73h1.67a1.76,1.76,0,0,1,1.67,1.73C1396,687.65,1395.22,688.4,1394.3,688Z"/><path class="cls-18" d="M1401,688h-1.67c-.93.4-1.67-.35-1.67-1.27a1.76,1.76,0,0,1,1.67-1.73H1401a1.76,1.76,0,0,1,1.67,1.73C1402.67,687.65,1401.92,688.4,1401,688Z"/><path class="cls-18" d="M1416.06,683h-1.67a1.23,1.23,0,0,1-1.67-1.29,1.72,1.72,0,0,1,1.67-1.71h1.67a1.72,1.72,0,0,1,1.67,1.71A1.23,1.23,0,0,1,1416.06,683Z"/><path class="cls-18" d="M1422.75,683h-1.67a1.23,1.23,0,0,1-1.67-1.29,1.72,1.72,0,0,1,1.67-1.71h1.67a1.72,1.72,0,0,1,1.67,1.71A1.23,1.23,0,0,1,1422.75,683Z"/><path class="cls-18" d="M1409.36,683h-1.67a1.23,1.23,0,0,1-1.67-1.29,1.72,1.72,0,0,1,1.67-1.71h1.67a1.72,1.72,0,0,1,1.67,1.71A1.23,1.23,0,0,1,1409.36,683Z"/><path class="cls-18" d="M1421.08,688h-1.67c-.93.4-1.67-.35-1.67-1.27a1.76,1.76,0,0,1,1.67-1.73h1.67a1.76,1.76,0,0,1,1.67,1.73C1422.75,687.65,1422,688.4,1421.08,688Z"/><path class="cls-18" d="M1414.38,688h-1.67c-.93.4-1.67-.35-1.67-1.27a1.76,1.76,0,0,1,1.67-1.73h1.67a1.76,1.76,0,0,1,1.67,1.73C1416.06,687.65,1415.31,688.4,1414.38,688Z"/><path class="cls-18" d="M1406,678h-1.67a1.25,1.25,0,0,1-1.67-1.31,1.69,1.69,0,0,1,1.67-1.69H1406a1.69,1.69,0,0,1,1.67,1.69A1.25,1.25,0,0,1,1406,678Z"/><path class="cls-18" d="M1399.32,678h-1.67a1.25,1.25,0,0,1-1.67-1.31,1.69,1.69,0,0,1,1.67-1.69h1.67a1.69,1.69,0,0,1,1.67,1.69A1.25,1.25,0,0,1,1399.32,678Z"/><path class="cls-18" d="M1419.4,678h-1.67a1.25,1.25,0,0,1-1.67-1.31,1.69,1.69,0,0,1,1.67-1.69h1.67a1.69,1.69,0,0,1,1.67,1.69A1.25,1.25,0,0,1,1419.4,678Z"/><path class="cls-18" d="M1412.71,678H1411a1.25,1.25,0,0,1-1.67-1.31A1.69,1.69,0,0,1,1411,675h1.67a1.69,1.69,0,0,1,1.67,1.69A1.25,1.25,0,0,1,1412.71,678Z"/><path class="cls-19" d="M1332.37,636.52a1.67,1.67,0,0,0,1.18-.49l6.69-6.69a1.67,1.67,0,1,0-2.37-2.37l-6.69,6.69a1.67,1.67,0,0,0,1.18,2.86Z"/><path class="cls-19" d="M1332.37,644.89a1.67,1.67,0,0,0,1.18-.49l3.35-3.35a1.67,1.67,0,1,0-2.37-2.37l-3.35,3.35a1.67,1.67,0,0,0,1.18,2.86Z"/><path class="cls-19" d="M1337.88,635.33a1.75,1.75,0,0,0-.49,1.19,1.72,1.72,0,0,0,.49,1.19,1.76,1.76,0,0,0,1.19.49,1.66,1.66,0,0,0,1.67-1.67,1.67,1.67,0,0,0-2.86-1.19Z"/><path class="cls-19" d="M1341.23,634.35a1.67,1.67,0,0,0,2.37,0l5-5a1.67,1.67,0,1,0-2.37-2.37l-5,5A1.67,1.67,0,0,0,1341.23,634.35Z"/><path class="cls-19" d="M1346.25,635.33l-15.06,15.06a1.67,1.67,0,1,0,2.37,2.37l15.06-15.06a1.67,1.67,0,0,0-2.37-2.37Z"/><path class="cls-19" d="M1349.59,632a1.67,1.67,0,1,0,2.38,0A1.75,1.75,0,0,0,1349.59,632Z"/><path class="cls-19" d="M1397.64,636.52a1.67,1.67,0,0,0,1.18-.49l6.69-6.69a1.67,1.67,0,0,0-2.37-2.37l-6.69,6.69a1.67,1.67,0,0,0,1.18,2.86Z"/><path class="cls-19" d="M1397.64,644.89a1.67,1.67,0,0,0,1.18-.49l3.35-3.35a1.67,1.67,0,1,0-2.37-2.37l-3.35,3.35a1.67,1.67,0,0,0,1.18,2.86Z"/><path class="cls-19" d="M1403.15,635.33a1.7,1.7,0,0,0,0,2.38,1.72,1.72,0,0,0,1.19.49,1.68,1.68,0,1,0-1.19-2.86Z"/><path class="cls-19" d="M1406.5,634.35a1.67,1.67,0,0,0,2.37,0l5-5a1.67,1.67,0,0,0-2.37-2.37l-5,5A1.67,1.67,0,0,0,1406.5,634.35Z"/><path class="cls-19" d="M1411.52,635.33l-15.06,15.06a1.67,1.67,0,1,0,2.37,2.37l15.06-15.06a1.67,1.67,0,0,0-2.37-2.37Z"/><path class="cls-19" d="M1417.24,632a1.75,1.75,0,0,0-2.38,0,1.7,1.7,0,0,0,0,2.38,1.68,1.68,0,0,0,2.38-2.38Z"/><polygon class="cls-16" points="1356 608 1356 623.04 1356 638.24 1356 692 1393 692 1393 638.24 1393 623.04 1393 608 1356 608"/><rect class="cls-14" x="1363" y="658" width="23" height="27"/><polyline class="cls-14" points="1363 622 1363 650 1386 650 1386 622"/><path class="cls-20" d="M1333,621.74h0a5.93,5.93,0,0,1-6-5.86V605h12v10.88A5.93,5.93,0,0,1,1333,621.74Z"/><path class="cls-21" d="M1345,621.74h0a5.93,5.93,0,0,1-6-5.86V605h12v10.88A5.93,5.93,0,0,1,1345,621.74Z"/><path class="cls-20" d="M1357,621.74h0a5.93,5.93,0,0,1-6-5.86V605h12v10.88A5.93,5.93,0,0,1,1357,621.74Z"/><path class="cls-21" d="M1368,621.74h0a5.93,5.93,0,0,1-6-5.86V605h12v10.88A5.93,5.93,0,0,1,1368,621.74Z"/><path class="cls-20" d="M1380,621.74h0a5.93,5.93,0,0,1-6-5.86V605h12v10.88A5.93,5.93,0,0,1,1380,621.74Z"/><path class="cls-21" d="M1392,621.74h0a5.93,5.93,0,0,1-6-5.86V605h12v10.88A5.93,5.93,0,0,1,1392,621.74Z"/><path class="cls-20" d="M1404,621.74h0a5.93,5.93,0,0,1-6-5.86V605h12v10.88A5.93,5.93,0,0,1,1404,621.74Z"/><path class="cls-21" d="M1415,621.74h0a5.93,5.93,0,0,1-6-5.86V605h12v10.88A5.93,5.93,0,0,1,1415,621.74Z"/><polygon class="cls-9" points="989 241 989 280.67 989 346 1124 346 1124 280.67 1124 241 989 241"/><rect class="cls-22" x="994" y="241" width="23" height="84"/><path class="cls-23" d="M1012,245v75H998V245h14m5-4H994v84h23V241Z"/><rect class="cls-22" x="1068" y="241" width="49" height="84"/><path class="cls-23" d="M1113,245v75h-40V245h40m4-4h-49v84h49V241Z"/><rect class="cls-23" x="1022" y="241" width="37" height="105"/><rect class="cls-22" x="1026" y="294" width="28" height="47"/><path class="cls-19" d="M1082,285.12a2.33,2.33,0,0,0,1.65-.68l9.33-9.33a2.33,2.33,0,0,0-3.3-3.3l-9.33,9.33a2.33,2.33,0,0,0,1.65,4Z"/><path class="cls-19" d="M1082,296.78a2.33,2.33,0,0,0,1.65-.68l4.66-4.66a2.33,2.33,0,1,0-3.3-3.3l-4.66,4.66a2.33,2.33,0,0,0,1.65,4Z"/><path class="cls-19" d="M1089.7,283.47a2.39,2.39,0,0,0-.68,1.66,2.33,2.33,0,1,0,.68-1.66Z"/><path class="cls-19" d="M1094.37,282.11a2.33,2.33,0,0,0,3.3,0l7-7a2.33,2.33,0,0,0-3.3-3.3l-7,7A2.33,2.33,0,0,0,1094.37,282.11Z"/><path class="cls-19" d="M1101.36,283.47l-21,21a2.33,2.33,0,1,0,3.3,3.3l21-21a2.33,2.33,0,0,0-3.3-3.3Z"/><path class="cls-19" d="M1109.33,278.8a2.44,2.44,0,0,0-3.31,0,2.39,2.39,0,0,0-.68,1.66,2.31,2.31,0,0,0,2.33,2.33,2.41,2.41,0,0,0,1.66-.68,2.45,2.45,0,0,0,.68-1.66A2.4,2.4,0,0,0,1109.33,278.8Z"/><rect class="cls-8" x="989" y="332" width="33" height="14"/><rect class="cls-8" x="1059" y="332" width="65" height="14"/><rect class="cls-24" x="998" y="332" width="5" height="14"/><rect class="cls-24" x="1007" y="332" width="5" height="14"/><rect class="cls-24" x="1068" y="332" width="5" height="14"/><rect class="cls-24" x="1077" y="332" width="5" height="14"/><rect class="cls-24" x="1087" y="332" width="5" height="14"/><rect class="cls-24" x="1096" y="332" width="5" height="14"/><rect class="cls-24" x="1105" y="332" width="5" height="14"/><rect class="cls-24" x="1115" y="332" width="5" height="14"/><path class="cls-22" d="M1040,257.06a16.26,16.26,0,0,1-13.39-7.06H1026v40h28V250h-.61A16.26,16.26,0,0,1,1040,257.06Z"/><path class="cls-25" d="M1028,210h-7a33.81,33.81,0,0,0-32.42,25.14c-.5,1.82.2.86.64.86H1056V210Z"/><path class="cls-11" d="M1094,236h29.24c.41,0,.93.41.59-.81v-.05a33.54,33.54,0,0,0-29.82-25V210h-37v26h37Z"/><path class="cls-11" d="M1056,236h-33.09a31.66,31.66,0,0,1,31.15-26H1056Z"/><path class="cls-25" d="M1089.09,236H1056V210h1.94a31.66,31.66,0,0,1,31.15,26Z"/><path class="cls-26" d="M1007.68,257h-2.35A16.32,16.32,0,0,1,989,240.68v-4.3a.37.37,0,0,1,.37-.37H1024v4.68A16.32,16.32,0,0,1,1007.68,257Z"/><path class="cls-13" d="M1040.5,257h0a16.41,16.41,0,0,1-16.5-16.32V236h33v4.66A16.41,16.41,0,0,1,1040.5,257Z"/><path class="cls-26" d="M1072.5,257h0a16.41,16.41,0,0,1-16.5-16.32V236h33v4.66A16.41,16.41,0,0,1,1072.5,257Z"/><path class="cls-13" d="M1107.68,257h-2.35A16.32,16.32,0,0,1,1089,240.68V236h34.63a.37.37,0,0,1,.37.37v4.3A16.32,16.32,0,0,1,1107.68,257Z"/><polygon class="cls-27" points="1388.86 303.05 1388.86 319.94 1388.86 332.74 1388.86 378 1396.89 378 1475.61 378 1475.61 319.94 1475.61 303.05 1388.86 303.05"/><rect class="cls-28" x="1392.33" y="331.5" width="45.11" height="36.78"/><rect class="cls-14" x="1395.8" y="334.28" width="38.17" height="30.54"/><path class="cls-29" d="M1409.6,302.35h-21.49a.45.45,0,0,1-.43-.57l6.41-13.92a4.91,4.91,0,0,1,4.46-2.86h14.2Z"/><polygon class="cls-29" points="1453.97 302.35 1431.89 302.35 1431.89 285 1450.82 285 1453.97 302.35"/><path class="cls-30" d="M1420.78,324.76h0a11.15,11.15,0,0,1-11.1-11.2v-11.2h22.21v11.2A11.15,11.15,0,0,1,1420.78,324.76Z"/><path class="cls-30" d="M1465.9,324.76h0a11.15,11.15,0,0,1-11.1-11.2v-11.2h22a.17.17,0,0,1,.17.17v11A11.15,11.15,0,0,1,1465.9,324.76Z"/><polygon class="cls-11" points="1431.89 302.35 1409.81 302.35 1412.96 285 1431.89 285 1431.89 302.35"/><path class="cls-11" d="M1476.22,302.35h-21.52L1451.54,285h14.2a4.91,4.91,0,0,1,4.47,2.86l6.42,14A.42.42,0,0,1,1476.22,302.35Z"/><path class="cls-31" d="M1398.57,324.76h0a11.15,11.15,0,0,1-11.1-11.2V302.8a.45.45,0,0,1,.45-.45h21.76v11.2A11.15,11.15,0,0,1,1398.57,324.76Z"/><path class="cls-31" d="M1443.69,324.76h0a11.15,11.15,0,0,1-11.1-11.2v-11.2h22.21v11.2A11.15,11.15,0,0,1,1443.69,324.76Z"/><rect class="cls-28" x="1442.99" y="331.5" width="25.68" height="46.5"/><rect class="cls-14" x="1446.46" y="334.28" width="19.43" height="40.25"/><path class="cls-19" d="M1461,358.85v-5.27a1.67,1.67,0,0,1,1-1.55,1.75,1.75,0,0,1,2.48,1.58v5.21a1.75,1.75,0,0,1-2.48,1.58A1.67,1.67,0,0,1,1461,358.85Z"/><path class="cls-19" d="M1412.94,345.82a1.6,1.6,0,0,0,1.13-.47l6.4-6.4a1.6,1.6,0,0,0-2.26-2.26l-6.4,6.4a1.6,1.6,0,0,0,1.13,2.73Z"/><path class="cls-19" d="M1412.94,353.82a1.6,1.6,0,0,0,1.13-.47l3.2-3.2a1.6,1.6,0,0,0-2.26-2.26l-3.2,3.2a1.6,1.6,0,0,0,1.13,2.73Z"/><path class="cls-19" d="M1418.21,344.68a1.67,1.67,0,0,0-.46,1.14,1.61,1.61,0,0,0,1.6,1.6,1.6,1.6,0,1,0-1.14-2.74Z"/><path class="cls-19" d="M1421.41,343.75a1.6,1.6,0,0,0,2.26,0l4.8-4.8a1.6,1.6,0,1,0-2.26-2.26l-4.8,4.8A1.6,1.6,0,0,0,1421.41,343.75Z"/><path class="cls-19" d="M1426.22,344.69l-14.4,14.4a1.6,1.6,0,1,0,2.26,2.26l14.4-14.4a1.6,1.6,0,0,0-2.26-2.26Z"/><path class="cls-19" d="M1431.68,341.48a1.62,1.62,0,1,0,.46,1.14A1.68,1.68,0,0,0,1431.68,341.48Z"/><path class="cls-32" d="M1397,378h-9.72l-1.48-8.91a.69.69,0,0,1,.68-.81h12.14Z"/><rect class="cls-8" x="1390.25" y="350.93" width="3.47" height="17.35"/><path class="cls-33" d="M1398.84,343.7a7.06,7.06,0,0,0,.57-3.91,3.54,3.54,0,0,0-.73-1.54,3.3,3.3,0,0,1-.66-2.74,4.22,4.22,0,0,0-.35-2.75,5.06,5.06,0,0,0-3.84-2.54,3.65,3.65,0,0,0-3.2.87l-1,.85a4.22,4.22,0,0,0-2.23,3,4.73,4.73,0,0,0,.12,2.18,3.66,3.66,0,0,1-.54,3.05,7.61,7.61,0,0,0-.71,7.06,4.26,4.26,0,0,0,.48.82,3.74,3.74,0,0,1,.62,3.11,5.13,5.13,0,0,0-.13.76,11.78,11.78,0,0,0,.37,3.47,5.67,5.67,0,0,0,1.42,3.21c1.17,1,2.87.62,4.21-.08a8.33,8.33,0,0,0,4.32-4.8,6,6,0,0,0-.23-4,3.82,3.82,0,0,1,.24-3.73A10.63,10.63,0,0,0,1398.84,343.7Z"/><path class="cls-34" d="M1392.5,52.4h0A2.57,2.57,0,0,0,1390,55V84h5V55A2.57,2.57,0,0,0,1392.5,52.4Z"/><path class="cls-34" d="M1402.5,62.4h0A2.57,2.57,0,0,0,1400,65V94h5V65A2.57,2.57,0,0,0,1402.5,62.4Z"/><path class="cls-35" d="M1384,78h34.37a2.63,2.63,0,0,1,2.63,2.63V189h-37Z"/><rect class="cls-34" x="1384" y="178" width="37" height="11"/><rect class="cls-34" x="1382" y="168" width="40" height="5"/><rect class="cls-36" x="1411" y="168" width="5" height="5"/><rect class="cls-36" x="1390" y="168" width="5" height="5"/><rect class="cls-36" x="1400" y="168" width="5" height="5"/><rect class="cls-34" x="1382" y="158" width="40" height="5"/><rect class="cls-36" x="1411" y="158" width="5" height="5"/><rect class="cls-36" x="1390" y="158" width="5" height="5"/><rect class="cls-36" x="1400" y="158" width="5" height="5"/><rect class="cls-34" x="1382" y="147" width="40" height="5"/><rect class="cls-36" x="1411" y="147" width="5" height="5"/><rect class="cls-36" x="1390" y="147" width="5" height="5"/><rect class="cls-36" x="1400" y="147" width="5" height="5"/><rect class="cls-34" x="1382" y="137" width="40" height="5"/><rect class="cls-36" x="1411" y="137" width="5" height="5"/><rect class="cls-36" x="1390" y="137" width="5" height="5"/><rect class="cls-36" x="1400" y="137" width="5" height="5"/><rect class="cls-34" x="1382" y="126" width="40" height="5"/><rect class="cls-36" x="1411" y="126" width="5" height="5"/><rect class="cls-36" x="1390" y="126" width="5" height="5"/><rect class="cls-36" x="1400" y="126" width="5" height="5"/><rect class="cls-34" x="1382" y="116" width="40" height="5"/><rect class="cls-36" x="1411" y="116" width="5" height="5"/><rect class="cls-36" x="1390" y="116" width="5" height="5"/><rect class="cls-36" x="1400" y="116" width="5" height="5"/><rect class="cls-34" x="1382" y="105" width="40" height="5"/><rect class="cls-36" x="1411" y="105" width="5" height="5"/><rect class="cls-36" x="1390" y="105" width="5" height="5"/><rect class="cls-36" x="1400" y="105" width="5" height="5"/><rect class="cls-34" x="1382" y="94" width="40" height="5"/><rect class="cls-36" x="1411" y="94" width="5" height="5"/><rect class="cls-36" x="1390" y="94" width="5" height="5"/><rect class="cls-36" x="1400" y="94" width="5" height="5"/><rect class="cls-34" x="1382" y="84" width="40" height="5"/><rect class="cls-36" x="1411" y="84" width="5" height="5"/><rect class="cls-36" x="1390" y="84" width="5" height="5"/><rect class="cls-36" x="1400" y="84" width="5" height="5"/><path class="cls-34" d="M1385,189h-79V41.63a2.63,2.63,0,0,1,2.63-2.63h73.73a2.63,2.63,0,0,1,2.63,2.63Z"/><path class="cls-36" d="M1313.5,162.78h0a2.57,2.57,0,0,1-2.5-2.63V54.8a2.57,2.57,0,0,1,2.5-2.63h0a2.57,2.57,0,0,1,2.5,2.63V160.15A2.57,2.57,0,0,1,1313.5,162.78Z"/><rect class="cls-37" x="1306" y="168" width="79" height="21"/><path class="cls-38" d="M1316,186V175.51a2.63,2.63,0,0,0-2.05-2.64,2.54,2.54,0,0,0-2.95,2.59V186Z"/><path class="cls-36" d="M1323.5,162.78h0a2.57,2.57,0,0,1-2.5-2.63V54.8a2.57,2.57,0,0,1,2.5-2.63h0a2.57,2.57,0,0,1,2.5,2.63V160.15A2.57,2.57,0,0,1,1323.5,162.78Z"/><path class="cls-38" d="M1326,186V175.51a2.63,2.63,0,0,0-2.05-2.64,2.54,2.54,0,0,0-2.95,2.59V186Z"/><path class="cls-36" d="M1334.5,162.78h0a2.57,2.57,0,0,1-2.5-2.63V54.8a2.57,2.57,0,0,1,2.5-2.63h0a2.57,2.57,0,0,1,2.5,2.63V160.15A2.57,2.57,0,0,1,1334.5,162.78Z"/><path class="cls-38" d="M1337,186V175.51a2.63,2.63,0,0,0-2.05-2.64,2.54,2.54,0,0,0-2.95,2.59V186Z"/><path class="cls-36" d="M1345.5,162.78h0a2.57,2.57,0,0,1-2.5-2.63V54.8a2.57,2.57,0,0,1,2.5-2.63h0a2.57,2.57,0,0,1,2.5,2.63V160.15A2.57,2.57,0,0,1,1345.5,162.78Z"/><path class="cls-38" d="M1348,186V175.51a2.63,2.63,0,0,0-2.05-2.64,2.54,2.54,0,0,0-2.95,2.59V186Z"/><path class="cls-36" d="M1355.5,162.78h0a2.57,2.57,0,0,1-2.5-2.63V54.8a2.57,2.57,0,0,1,2.5-2.63h0a2.57,2.57,0,0,1,2.5,2.63V160.15A2.57,2.57,0,0,1,1355.5,162.78Z"/><path class="cls-38" d="M1358,186V175.51a2.63,2.63,0,0,0-2.05-2.64,2.54,2.54,0,0,0-2.95,2.59V186Z"/><path class="cls-36" d="M1366.5,162.78h0a2.57,2.57,0,0,1-2.5-2.63V54.8a2.57,2.57,0,0,1,2.5-2.63h0a2.57,2.57,0,0,1,2.5,2.63V160.15A2.57,2.57,0,0,1,1366.5,162.78Z"/><path class="cls-38" d="M1369,186V175.51a2.63,2.63,0,0,0-2.05-2.64,2.54,2.54,0,0,0-2.95,2.59V186h5Z"/><path class="cls-36" d="M1376.5,162.78h0a2.57,2.57,0,0,1-2.5-2.63V54.8a2.57,2.57,0,0,1,2.5-2.63h0a2.57,2.57,0,0,1,2.5,2.63V160.15A2.57,2.57,0,0,1,1376.5,162.78Z"/><path class="cls-38" d="M1379,186V175.51a2.63,2.63,0,0,0-2.05-2.64,2.54,2.54,0,0,0-2.95,2.59V186Z"/><rect class="cls-38" x="1311" y="152" width="5" height="5"/><rect class="cls-38" x="1321" y="152" width="5" height="5"/><rect class="cls-38" x="1332" y="152" width="5" height="5"/><rect class="cls-38" x="1343" y="152" width="5" height="5"/><rect class="cls-38" x="1353" y="152" width="5" height="5"/><rect class="cls-38" x="1364" y="152" width="5" height="5"/><rect class="cls-38" x="1374" y="152" width="5" height="5"/><rect class="cls-38" x="1311" y="137" width="5" height="5"/><rect class="cls-38" x="1321" y="137" width="5" height="5"/><rect class="cls-38" x="1332" y="137" width="5" height="5"/><rect class="cls-38" x="1343" y="137" width="5" height="5"/><rect class="cls-38" x="1353" y="137" width="5" height="5"/><rect class="cls-38" x="1364" y="137" width="5" height="5"/><rect class="cls-38" x="1374" y="137" width="5" height="5"/><rect class="cls-38" x="1311" y="121" width="5" height="5"/><rect class="cls-38" x="1321" y="121" width="5" height="5"/><rect class="cls-38" x="1332" y="121" width="5" height="5"/><rect class="cls-38" x="1343" y="121" width="5" height="5"/><rect class="cls-38" x="1353" y="121" width="5" height="5"/><rect class="cls-38" x="1364" y="121" width="5" height="5"/><rect class="cls-38" x="1374" y="121" width="5" height="5"/><rect class="cls-38" x="1311" y="105" width="5" height="5"/><rect class="cls-38" x="1321" y="105" width="5" height="5"/><rect class="cls-38" x="1332" y="105" width="5" height="5"/><rect class="cls-38" x="1343" y="105" width="5" height="5"/><rect class="cls-38" x="1353" y="105" width="5" height="5"/><rect class="cls-38" x="1364" y="105" width="5" height="5"/><rect class="cls-38" x="1374" y="105" width="5" height="5"/><rect class="cls-38" x="1311" y="89" width="5" height="5"/><rect class="cls-38" x="1321" y="89" width="5" height="5"/><rect class="cls-38" x="1332" y="89" width="5" height="5"/><rect class="cls-38" x="1343" y="89" width="5" height="5"/><rect class="cls-38" x="1353" y="89" width="5" height="5"/><rect class="cls-38" x="1364" y="89" width="5" height="5"/><rect class="cls-38" x="1374" y="89" width="5" height="5"/><rect class="cls-38" x="1311" y="73" width="5" height="5"/><rect class="cls-38" x="1321" y="73" width="5" height="5"/><rect class="cls-38" x="1332" y="73" width="5" height="5"/><rect class="cls-38" x="1343" y="73" width="5" height="5"/><rect class="cls-38" x="1353" y="73" width="5" height="5"/><rect class="cls-38" x="1364" y="73" width="5" height="5"/><rect class="cls-38" x="1374" y="73" width="5" height="5"/><rect class="cls-38" x="1311" y="58" width="5" height="5"/><rect class="cls-38" x="1321" y="58" width="5" height="5"/><rect class="cls-38" x="1332" y="58" width="5" height="5"/><rect class="cls-38" x="1343" y="58" width="5" height="5"/><rect class="cls-38" x="1353" y="58" width="5" height="5"/><rect class="cls-38" x="1364" y="58" width="5" height="5"/><rect class="cls-38" x="1374" y="58" width="5" height="5"/><path class="cls-36" d="M1385,47h-79V41.63a2.63,2.63,0,0,1,2.63-2.63h73.73a2.63,2.63,0,0,1,2.63,2.63Z"/><path class="cls-36" d="M1424,192H1302.88a2.57,2.57,0,0,1-2.63-2.5h0a2.57,2.57,0,0,1,2.63-2.5H1424a2.57,2.57,0,0,1,2.63,2.5h0A2.57,2.57,0,0,1,1424,192Z"/><path class="cls-39" d="M254.08,403.05a62,62,0,1,0-62-62A62.09,62.09,0,0,0,254.08,403.05Z"/><path class="cls-40" d="M234.49,337.91c2.82-4.74,7.26-10.24,2.75-18.6-6.64-29,24-34.93,28.59-22.94,7.53,2.84,7.33,18.47,3.46,26.65-.17,3.37-3.67,6.3,2.65,15l.46-.1h0c-8.2,2.38-29.23,1.28-37.91,0h0Z"/><path class="cls-41" d="M242.53,322.87c2.31,4.85,3.16,6.74,6,8.92-.67,12.35-10.15,6.45-17.08,17.64a103.18,103.18,0,0,0-4.12,10.49,48.87,48.87,0,0,0,53.46,0,103.18,103.18,0,0,0-4.12-10.49c-6.93-11.19-16.41-5.3-17.08-17.64,2.87-2.18,3.72-4.07,6-8.92.57.3,1.16.7,1.62.18s2.64-7.22,2.25-8.13-.78-.33-1.36.08c0-.19-.46,2.42-.46,2,.06-3.17-2.21-6-2.92-14.33-6.58,12.17-25.54,7.17-24.73,12.31-3.69-2.59.79,7.94.89,8,.46.52,1.05.12,1.62-.18Z"/><path class="cls-42" d="M248.56,331.79c-.17,3.07-.88,5-2,6.36l7.7,4.22,7.51-3.92c-1.23-1.37-2-3.37-2.22-6.67,0,0-3.17,2.35-5.62,2.37s-5.43-2.37-5.43-2.37Z"/><path class="cls-43" d="M247.51,336.78c-1.73,3.73-5.32,4.15-9.18,6.22l15.58,25h.16q1.56,0,3.1-.1L269.85,343c-4-2.17-7.75-2.53-9.4-6.7l-6.38,4.19-6.56-3.73h0Z"/><path class="cls-19" d="M247.78,335.18l-1.59,3.32,4.74,8,3.1-6.07Zm12.59,0h0l1.62,3.25-4.77,8-3.1-6.07Z"/><path class="cls-44" d="M243.58,340c-4,1.88-10.73,2.63-15.29,9.11a50.93,50.93,0,0,0-2.73,5.76c-5.63,6.59-13,15.5-13.15,16.89-.18,2.26-.52,3.91-.35,4.35s4,15.46,4,15.46l13.88.28-4.33-17.47,7.38-6.46V397h42V367.89l7.38,6.46-4.33,17.47,13.88-.28s3.83-15,4-15.46-.18-2.09-.35-4.35c-.11-1.4-7.52-10.31-13.15-16.9a51,51,0,0,0-2.73-5.76c-4.58-6.5-11.32-7.24-15.32-9.13l-8.06,15.5L254,358.84l-2.22-3.4L243.58,340h0Z"/><path class="cls-23" d="M223.87,386.89c3.93,0,7.12,2,7.12,4.42s-3.19,4.42-7.12,4.42-7.12-2-7.12-4.42S219.94,386.89,223.87,386.89Zm0,1.17h0c-3.06,0-5.54,1.46-5.54,3.25s2.48,3.25,5.54,3.25,5.54-1.46,5.54-3.25S226.93,388.06,223.87,388.06Z"/><path class="cls-45" d="M223.87,394.56c3.05,0,5.54-1.46,5.54-3.25s-2.49-3.25-5.54-3.25-5.54,1.46-5.54,3.25S220.82,394.56,223.87,394.56Z"/><path class="cls-46" d="M222,393v3.73c-.38.44-1.19.27-1.19.27H219.4a1.91,1.91,0,0,1-1.4-.27v-5.51a8.6,8.6,0,0,0,1-.24v-1.21c-.37-1,1.51-1.76,1.51-1.76H232.1s1.87.73.9,1.76V391c1,.08,1,.16,1,.24v5.51c0,.44-.79.27-.79.27H231.8a.81.81,0,0,1-.8-.8V393h-1v3.2a.81.81,0,0,1-.8.8H227.8a.81.81,0,0,1-.8-.8V393h-1v3.2a.81.81,0,0,1-.8.8h-1.67s-.8.17-.53-.27V393h-1Z"/><path class="cls-23" d="M284.29,386.89c-3.93,0-7.12,2-7.12,4.42s3.19,4.42,7.12,4.42,7.12-2,7.12-4.42S288.22,386.89,284.29,386.89Zm0,1.17h0c3.06,0,5.54,1.46,5.54,3.25s-2.48,3.25-5.54,3.25-5.54-1.46-5.54-3.25S281.23,388.06,284.29,388.06Z"/><path class="cls-45" d="M284.29,394.56c3.05,0,5.54-1.46,5.54-3.25s-2.49-3.25-5.54-3.25-5.54,1.46-5.54,3.25S281.24,394.56,284.29,394.56Z"/><path class="cls-46" d="M286,393v3.73a1.78,1.78,0,0,0,1.34.27h1.42s.8.17.24-.27v-5.51c.56-.08.55-.17,1-.24v-1.21c-.47-1-2.35-1.76-2.35-1.76H276.06s-1.87.73-2.06,1.76V391c.16.08.15.16,1,.24v5.51c-.85.44-.05.27-.05.27h1.25a.8.8,0,0,0,.8-.8V393h1v3.2a.81.81,0,0,0,.8.8h1.39a.81.81,0,0,0,.8-.8V393h1v3.2a.81.81,0,0,0,.8.8h1.82s.8.17.37-.27V393h1Z"/><path class="cls-47" d="M244.67,339.85l9.48,18.46,9.34-18.46a14.21,14.21,0,0,0,1.49.81l-10.83,21.17-10.93-21.3a13.41,13.41,0,0,0,1.45-.69Z"/><path class="cls-19" d="M222.71,351h63.59a3.72,3.72,0,0,1,3.71,3.71v35.59a3.72,3.72,0,0,1-3.71,3.71H222.71a3.72,3.72,0,0,1-3.71-3.71V354.71A3.72,3.72,0,0,1,222.71,351Z"/><path class="cls-48" d="M220.41,395h68.18a1.41,1.41,0,0,1,1.41,1.41v3.18a1.41,1.41,0,0,1-1.41,1.41H220.41a1.41,1.41,0,0,1-1.41-1.41v-3.19A1.41,1.41,0,0,1,220.41,395Z"/><path class="cls-23" d="M229,393h6v4h-6Zm44,0h6v4h-6Z"/><path class="cls-23" d="M247.33,367h13.35a.33.33,0,0,1,.33.33v3.35a.33.33,0,0,1-.33.33H247.33a.33.33,0,0,1-.33-.33v-3.35A.33.33,0,0,1,247.33,367Z"/><path class="cls-39" d="M142.89,169.49a56.25,56.25,0,1,0-56.25-56.25A56.36,56.36,0,0,0,142.89,169.49Z"/><path class="cls-48" d="M134.67,136l-2.41,8.11L124,150.24V152h37v-1.76l-7.49-6.13L151.11,136H134.67Z"/><path class="cls-19" d="M124,151v1h37v-1H124Z"/><path class="cls-40" d="M101,69H184a5,5,0,0,1,5,5v51H96V74a5,5,0,0,1,5-5Z"/><path class="cls-44" d="M99,122h87V73.6a1.61,1.61,0,0,0-1.6-1.6H100.6A1.61,1.61,0,0,0,99,73.6Z"/><path class="cls-47" d="M127,125h39.22L136.56,97.41l-14,13.9Z"/><path class="cls-49" d="M127,125h39.22l-3.64-3H125.89Z"/><path class="cls-19" d="M132.35,107.2a4.79,4.79,0,0,0,0-6.78,4.86,4.86,0,0,0-4.68-1.3l-1.56-1.58a.48.48,0,0,0-.67,0L122.91,100a.48.48,0,0,0,0,.67l1.47,1.48a4.85,4.85,0,0,0,1.18,5,4.79,4.79,0,0,0,6.78.1Z"/><path class="cls-46" d="M126.23,94l-3.57-3.59a3.16,3.16,0,0,0-4.45,0l-2.56,2.54a3.16,3.16,0,0,0,0,4.46l3.57,3.59c-.82,3.17,0,6.94,3.35,10.34l14-13.9c-3.38-3.4-7.14-4.22-10.32-3.42Z"/><path class="cls-50" d="M115.72,92.88l-.07.07a3.16,3.16,0,0,0,0,4.46l3.57,3.59c-.82,3.17,0,6.94,3.35,10.34l.43-.42c-3.1-3.42-3.8-7.14-3-10.3l-3.75-3.77A3.32,3.32,0,0,1,115.72,92.88Z"/><path class="cls-19" d="M189,125v5.22c0,2.63-2.46,4.78-5.47,4.78H101.47c-3,0-5.47-2.15-5.47-4.78V125Z"/><path class="cls-51" d="M118.48,94.93,104,120v29h4.87l-2-29L120.34,95.9C120.84,94.8,119.13,94,118.48,94.93Z"/><path class="cls-49" d="M87,156H199v-5H87Z"/><path class="cls-46" d="M124.43,149H97.55c-2,0-4.38,3-2.4,3H126C128,152,126.41,149,124.43,149Z"/><path class="cls-46" d="M105.55,117.84a2,2,0,1,0,2,2A2,2,0,0,0,105.55,117.84Z"/><path class="cls-19" d="M105.55,118.86a1,1,0,1,0,1,1A1,1,0,0,0,105.55,118.86Z"/><path class="cls-52" d="M120,148.13l-5-.87V149h5Z"/><path class="cls-19" d="M136,138H145a1,1,0,0,1,1,1V151a1,1,0,0,1-1,1H136a1,1,0,0,1-1-1V139A1,1,0,0,1,136,138Z"/><path class="cls-23" d="M146,141h2.5a1.43,1.43,0,0,1,1.5,1.34v6.32a1.43,1.43,0,0,1-1.5,1.34H146v-1h2.54c.14,0,.46-.1.46-.28v-6.44c0-.18-.31-.28-.46-.28H146Z"/><path class="cls-23" d="M145,152V138h.06a.8.8,0,0,1,.94.83v11.78c0,.52-.42.94-.94,1.39Z"/><path class="cls-47" d="M138,144h3v3h-3Z"/><path class="cls-44" d="M138.46,144h2.84l-.16,1h-2.45Z"/><path class="cls-46" d="M139,138v6c1,.08.8.09,1,0v-6Z"/><path class="cls-40" d="M96,158h94v-2H96Z"/><path class="cls-53" d="M142.89,131.6a1.58,1.58,0,1,0-1.58-1.58A1.58,1.58,0,0,0,142.89,131.6Z"/><path class="cls-47" d="M157.46,135H186v1a3.92,3.92,0,0,0,0,5.07v1H157.46C153,142,153,135,157.46,135Z"/><path class="cls-19" d="M184.53,141a4,4,0,0,1,0-5H156.4a2.5,2.5,0,0,0,0,5h28.13Z"/><path class="cls-23" d="M185.51,136a2.26,2.26,0,0,0,.29-1H155.33c-2.91.56-3.73,4.74-.79,5.85-2-1-1.26-4.31.85-4.85Z"/><path class="cls-23" d="M185.21,136H153.35c.06.44.12.37.19,0h31.78a1.31,1.31,0,0,1-.1.51Zm-32.13,1v-.1c0,.07-.07.13-.11-.9h32c0,1,0,1,.07,1Zm-.25,1v-.51a2,2,0,0,0-.05.51h32.07c0-.38,0-.44,0,0Zm-.11,1v-.92c0,.06,0,.13.28.19V138h31.81c0,.21,0,.15,0,1Zm0,0v-.33c0,.07,0,.14,0-.67h32.07c0,.8,0,.74,0,1Zm.15,1v-.74c0,.07.06.14.09-.26h32c0,.39,0,.33-.06,1Zm.31,0v-.15c0,.07.1.14.16-.85h31.86c0,1-.06.92-.09,1Zm.56,1v-.56c.1.08.2.14.31.56h31.48c0-.42-.09-.49-.13,0Z"/><path class="cls-52" d="M190,142H153v1.38a6,6,0,0,1,0,7.25V152h37c5.78,0,5.78-10,0-10Z"/><path class="cls-19" d="M152.85,150a6,6,0,0,0,0-7H188.6a3.53,3.53,0,0,1,0,7Z"/><path class="cls-23" d="M153.4,144a8.82,8.82,0,0,1-.34-1h35.35c3.38.32,4.33,5.66.92,7.07,2.33-1.25,1.46-5.5-1-6.07Z"/><path class="cls-23" d="M153.75,144h37c-.07.44-.14.36-.22,0H153.63a1.58,1.58,0,0,0,.12.53ZM191,146v-1c0,.09.09.17.12,0H154a5,5,0,0,0-.08,1Zm.29,0v-.22c0,.09,0,.17.06-.78h-37.2a5.47,5.47,0,0,1,0,1Zm.12,1v-.47c0,.08,0,.16,0,.24V146H154.22c0,.71,0,.62,0,1Zm0,0v.29c0,.09,0,.18,0-.29h-37.2c0,.46,0,.38,0,0Zm-.18,2v-1c0,.09-.07.18-.1,0H154a5.35,5.35,0,0,1,.07,1Zm-.36,0v-.2c-.06.09-.12.18-.18-.8h-37c0,1,.07.88.11,1Zm-.65,1v-.45c-.11.1-.23.18-.35-.55H153.35a6.34,6.34,0,0,0,.15,1Z"/><path class="cls-46" d="M182,127H160v1a4.83,4.83,0,0,1,0,5.07v1h22c3.44,0,3.44-7,0-7Z"/><path class="cls-19" d="M160.5,133a4.92,4.92,0,0,0,0-5h21.72c1,0,1.86,1.13,1.86,2.5s-.84,2.5-1.86,2.5Z"/><path class="cls-23" d="M159.74,128c-.07.36-.14.22-.23,0H183c2.25.07,2.88,4.25.61,5.36,1.55-1,1-4.31-.66-5.36Z"/><path class="cls-23" d="M160,128h24.6c0,1-.09.89-.14,1H159.89C159.92,128.89,159.95,129,160,128Zm24.81,2v-.59a1.59,1.59,0,0,1,.08.59H160.15c0-.45,0-.52-.05,0Zm.19,1v-1c0,.07,0,.14,0,0H160.25c0,.14,0,.07,0,1Zm.08,0v-.41a.23.23,0,0,1-.05.19V130H160.28c0,.73,0,.66,0,1Zm0,1v-.82c0,.07,0,.14,0-.18H160.24c0,.32,0,.25,0,1Zm-.12,0v-.23c0,.07,0,.14-.07-.77H160.14a7.4,7.4,0,0,0,0,1Zm-.24,0v.36c0,.07-.08.14-.12-.36H160c0,.5,0,.43.07,0Zm-.43,2v-1c-.07.08-.15.14-.24,0H159.7c0,.09.07,0,.1,1Z"/><path class="cls-19" d="M119.44,94.79a.61.61,0,1,0,.61.61A.61.61,0,0,0,119.44,94.79Z"/><path class="cls-54" d="M136.31,675.61A51.31,51.31,0,1,0,85,624.3,51.41,51.41,0,0,0,136.31,675.61Z"/><path class="cls-42" d="M131.52,611.8h9.57l.78,8.07,1.38,1.11,2.91,1.85-9.85,23.26-9.84-23.26,2.91-1.85,1.38-1.1.77-8.07Z"/><path class="cls-44" d="M128.5,621.93l-14,4.48a5,5,0,0,0-2.09,2.77C108.2,633.67,94.81,648.3,94.81,652c0,4.4,11.43,15,11.43,15.37h5.59v3.42h49.6v-3.42h5c0-.36,11.43-11,11.43-15.37,0-3.72-13.39-18.36-17.57-22.84a5,5,0,0,0-2.09-2.77L144.22,622,143,625.46l-6.72-.33-6.62.32-1.18-3.53ZM111.66,647.6h0l1.74,6.94-.31,7.33-1.43-1.64-5-7.14,5-5.5ZM161,660.23h0l-1.43,1.55-.31-8.52L161,647.6l5,5.5Z"/><path class="cls-43" d="M128.37,621.56l-1.89.6,9.83,23.91,9.92-23.85-2-.64-4.94,3.05h-5.92l-5-3.07Z"/><path class="cls-47" d="M128.5,621.93l-3,1-.58,7.68s.16.63.64.57l2.73,1a.31.31,0,0,1,0,.41l-2.34,1.6L134,649.42q1.13.07,2.29.07t2.29-.07l8.08-15.23-2.34-1.6a.31.31,0,0,1,0-.41l2.73-1c.48.06.64-.57.64-.57l-.58-7.66-2.93-.93-7.91,23.18-7.81-23.24Z"/><path class="cls-41" d="M147.46,595.8c0,.75.27,1.48.25,2.2,2.57-.48,1.33,7.14-.12,8.19-.12.08-.4-.1-.64-.26-.5,2.8-4.8,10.29-7.53,13.44-.76.88-5.4.86-6.15,0-2.8-3.08-7.09-10.66-7.6-13.48-.24.15-.52.34-.64.26-1.45-1-2.69-8.67-.12-8.19,0-.72.25-1.45.25-2.2.14-5.92,5.5-8.87,11.15-8.9s11,3,11.15,8.9Z"/><path class="cls-40" d="M144,588.21a4.34,4.34,0,0,1,4.08,3.89,39.05,39.05,0,0,1,.18,5.94,2.68,2.68,0,0,0-1.93,2.19c-.22,1.76-.06,1.76-.06,1.76l-.62-.14-.44-3c-2.56-1.6,0-4-2.54-4.54-6.92,4.93-13,4.09-15.78,1.77,0,0,.64,2.43.15,3.29a3.73,3.73,0,0,0-.2,2.23l-.64,0s.12-3.57-1.31-3.56c-5.43-9,11.76-20.1,19.12-9.79Z"/><path class="cls-19" d="M130.68,619.12a27.73,27.73,0,0,1-2.34,2.86l2.17,7.36,5.81-4.3c-3.19-1.56-5.1-3.57-5.63-5.92Z"/><path class="cls-19" d="M141.94,619.12a27.77,27.77,0,0,0,2.34,2.86l-2.17,7.36-5.81-4.3c3.19-1.56,5.1-3.57,5.63-5.92Z"/><path class="cls-23" d="M111.16,662.75c3.27,0,5.93,1.65,5.93,3.68s-2.65,3.68-5.93,3.68-5.93-1.65-5.93-3.68S107.89,662.75,111.16,662.75Zm0,1h0c-2.55,0-4.61,1.21-4.61,2.71s2.06,2.71,4.61,2.71,4.61-1.21,4.61-2.71S113.71,663.73,111.16,663.73Z"/><path class="cls-45" d="M111.16,669.14c2.54,0,4.61-1.22,4.61-2.71s-2.07-2.71-4.61-2.71-4.61,1.22-4.61,2.71S108.62,669.14,111.16,669.14Z"/><path class="cls-46" d="M109.26,668.25V671a.67.67,0,0,1-.67.67h-1.16s-.67-.36-.74-.72v-4.59c.07-.07.08-.14.86-.2v-1c-.75-.86.81-1.17.81-1.17H118s1.56.32,1.51,1.17v1c.07.06.08.13.86.2v4.59c-.78.37-1.44.72-1.44.72h-1.31A.67.67,0,0,1,117,671v-2.75h-.86V671a.67.67,0,0,1-.67.67h-1.23a.67.67,0,0,1-.67-.67v-2.75h-.86V671a.67.67,0,0,1-.67.67h-1.23a.67.67,0,0,1-.67-.67v-2.75Z"/><path class="cls-23" d="M161.46,662.75c-3.27,0-5.93,1.65-5.93,3.68s2.65,3.68,5.93,3.68,5.93-1.65,5.93-3.68S164.74,662.75,161.46,662.75Zm0,1h0c2.55,0,4.61,1.21,4.61,2.71s-2.06,2.71-4.61,2.71-4.61-1.21-4.61-2.71S158.91,663.73,161.46,663.73Z"/><path class="cls-55" d="M161.46,669.14c2.54,0,4.61-1.22,4.61-2.71s-2.07-2.71-4.61-2.71-4.61,1.22-4.61,2.71S158.92,669.14,161.46,669.14Z"/><path class="cls-46" d="M163.14,668.25V671a.67.67,0,0,0,.67.67h1.38s.67-.36.52-.72v-4.59c.15-.07.14-.14.86-.2v-1a4.81,4.81,0,0,0-2.3-1.17h-9.65s-1.56.32-1.73,1.17v1c.15.06.14.13.86.2v4.59c-.72.37,0,.72,0,.72h1.09a.67.67,0,0,0,.67-.67v-2.75h.86V671a.67.67,0,0,0,.67.67h1.23a.67.67,0,0,0,.67-.67v-2.75h.86V671a.67.67,0,0,0,.67.67h1.23a.67.67,0,0,0,.67-.67v-2.75Z"/><path class="cls-19" d="M109.77,634h52.87a3.08,3.08,0,0,1,3.07,3.07V666a3.08,3.08,0,0,1-3.07,3.07H109.77A3.08,3.08,0,0,1,106.7,666V637.11A3.08,3.08,0,0,1,109.77,634Z"/><path class="cls-48" d="M107.86,670.81h56.68a1.17,1.17,0,0,1,1.16,1.16v1.95a1.17,1.17,0,0,1-1.17,1.17H107.86a1.17,1.17,0,0,1-1.17-1.17V672A1.17,1.17,0,0,1,107.86,670.81Z"/><path class="cls-23" d="M115.25,669.1h5.13v3.42h-5.13Zm36.78,0h5.13v3.42H152Z"/><path class="cls-23" d="M130.75,646.87h11.12c.15.55.27.67.75.82v2.52c-.48.15-.6.27-.75.08H130.75c-.15.19-.27.07-.11-.08v-2.52C130.48,647.54,130.6,647.42,130.75,646.87Z"/><path class="cls-39" d="M490.52,623.05A75.53,75.53,0,1,0,415,547.53,75.67,75.67,0,0,0,490.52,623.05Z"/><path class="cls-40" d="M466.64,543.65c3.44-5.78,8.85-12.48,3.35-22.67-8.09-35.39,29.21-42.57,34.85-28,9.18,3.46,8.93,22.51,4.21,32.48-.21,4.1-4.48,7.68,3.23,18.26l.55-.12h0c-10,2.9-35.63,1.56-46.2,0h0Z"/><path class="cls-41" d="M476.44,525.32c2.81,5.91,3.85,8.22,7.35,10.87-.82,15-12.37,7.86-20.82,21.5a125.76,125.76,0,0,0-5,12.79,59.57,59.57,0,0,0,65.16,0,125.76,125.76,0,0,0-5-12.79c-8.45-13.64-20-6.45-20.82-21.5,3.49-2.66,4.53-5,7.35-10.87.69.36,1.41.85,2,.22s3.22-8.8,2.74-9.91-.95-.4-1.66.1c0-.24-.56,3-.56,2.47.07-3.86-2.7-7.26-3.56-17.47-8,14.84-31.13,8.73-30.14,15-4.5-3.15,1,9.68,1.08,9.81.56.63,1.28.14,2-.22Z"/><path class="cls-42" d="M483.79,536.19c-.2,3.74-1.07,6.1-2.38,7.76l9.39,5.15,9.16-4.77c-1.49-1.67-2.48-4.1-2.7-8.13,0,0-3.87,2.86-6.85,2.89s-6.61-2.89-6.61-2.89Z"/><path class="cls-43" d="M482.51,542.28c-2.11,4.55-6.48,5.06-11.18,7.58l19,30.47h.2q1.9,0,3.77-.12l15.45-30.33c-4.9-2.64-9.45-3.08-11.46-8.17l-7.78,5.11-8-4.55h0Z"/><path class="cls-19" d="M482.85,540.32l-1.94,4.05,5.78,9.71,3.78-7.4Zm15.34,0h0l2,4-5.81,9.8-3.78-7.4Z"/><path class="cls-44" d="M477.72,546.17c-4.87,2.29-13.08,3.21-18.64,11.11a62.08,62.08,0,0,0-3.33,7c-6.87,8-15.9,18.89-16,20.59-.21,2.76-.64,4.77-.43,5.3S444.18,609,444.18,609l16.92.34-5.27-21.3,9-7.88v35.48H516V580.19l9,7.88-5.28,21.3,16.92-.34s4.67-18.31,4.88-18.84-.21-2.54-.43-5.3c-.13-1.71-9.16-12.56-16-20.59a62.17,62.17,0,0,0-3.33-7c-5.58-7.92-13.8-8.82-18.68-11.12L493.25,565l-2.83,4.11-2.7-4.15-10-18.85h0Z"/><path class="cls-23" d="M453.7,603.36c4.79,0,8.68,2.41,8.68,5.39s-3.88,5.39-8.68,5.39-8.68-2.41-8.68-5.39S448.91,603.36,453.7,603.36Zm0,1.42h0c-3.73,0-6.75,1.78-6.75,4s3,4,6.75,4,6.75-1.78,6.75-4S457.43,604.78,453.7,604.78Z"/><path class="cls-45" d="M453.7,612.71c3.72,0,6.75-1.78,6.75-4s-3-4-6.75-4-6.75,1.78-6.75,4S450,612.71,453.7,612.71Z"/><path class="cls-46" d="M451.42,610.8v4.55c-.47.54-1.45.33-1.45.33h-1.73a2.33,2.33,0,0,1-1.7-.33v-6.72a10.49,10.49,0,0,0,1.22-.3v-1.48c-.45-1.26,1.84-2.15,1.84-2.15h14.13s2.29.89,1.1,2.15v1.48c1.22.09,1.23.19,1.22.3v6.72c0,.54-1,.33-1,.33h-1.71a1,1,0,0,1-1-1v-3.9h-1.22v3.9a1,1,0,0,1-1,1h-1.7a1,1,0,0,1-1-1v-3.9h-1.22v3.9a1,1,0,0,1-1,1h-2s-1,.21-.65-.33V610.8h-1.22Z"/><path class="cls-23" d="M527.34,603.36c-4.79,0-8.68,2.41-8.68,5.39s3.88,5.39,8.68,5.39,8.68-2.41,8.68-5.39S532.13,603.36,527.34,603.36Zm0,1.42h0c3.73,0,6.75,1.78,6.75,4s-3,4-6.75,4-6.75-1.78-6.75-4S523.61,604.78,527.34,604.78Z"/><path class="cls-45" d="M527.34,612.71c3.72,0,6.75-1.78,6.75-4s-3-4-6.75-4-6.75,1.78-6.75,4S523.62,612.71,527.34,612.71Z"/><path class="cls-46" d="M529.42,610.8v4.55a2.17,2.17,0,0,0,1.64.33h1.73s1,.21.29-.33v-6.72c.69-.1.67-.2,1.22-.3v-1.48c-.58-1.26-2.86-2.15-2.86-2.15H517.31s-2.28.89-2.51,2.15v1.48c.19.09.18.19,1.22.3v6.72c-1,.54-.06.33-.06.33h1.52a1,1,0,0,0,1-1v-3.9h1.22v3.9a1,1,0,0,0,1,1h1.7a1,1,0,0,0,1-1v-3.9h1.22v3.9a1,1,0,0,0,1,1h2.22s1,.21.45-.33V610.8h1.22Z"/><path class="cls-47" d="M479.05,546l11.56,22.5L502,546a17.31,17.31,0,0,0,1.82,1l-13.2,25.8-13.32-26a16.34,16.34,0,0,0,1.76-.85Z"/><path class="cls-19" d="M452.28,559.61h77.5a4.53,4.53,0,0,1,4.52,4.52V607.5a4.53,4.53,0,0,1-4.52,4.52h-77.5a4.53,4.53,0,0,1-4.52-4.52V564.13A4.53,4.53,0,0,1,452.28,559.61Z"/><path class="cls-48" d="M449.48,613.24h83.11A1.72,1.72,0,0,1,534.3,615v3.88a1.72,1.72,0,0,1-1.72,1.72H449.48a1.72,1.72,0,0,1-1.71-1.71V615A1.72,1.72,0,0,1,449.48,613.24Z"/><path class="cls-23" d="M459.95,610.8h7.31v4.88h-7.31Zm53.63,0h7.31v4.88h-7.31Z"/><path class="cls-23" d="M482.29,579.11h16.27a.4.4,0,0,1,.4.4v4.08a.4.4,0,0,1-.4.4H482.29a.4.4,0,0,1-.4-.4v-4.08A.4.4,0,0,1,482.29,579.11Z"/><circle class="cls-56" cx="796.65" cy="199.89" r="50.65"/><path class="cls-19" d="M822.8,168.36v62.45a1.92,1.92,0,0,1-1.91,1.91H772.58a1.92,1.92,0,0,1-1.91-1.91V168.36a1.92,1.92,0,0,1,1.91-1.91h48.31A1.92,1.92,0,0,1,822.8,168.36Z"/><rect class="cls-57" x="776.85" y="185.89" width="8.84" height="8.84"/><rect class="cls-58" x="776.85" y="201.8" width="8.84" height="8.84"/><rect class="cls-59" x="776.85" y="217.7" width="8.84" height="8.84"/><rect class="cls-60" x="788.34" y="185.89" width="28.28" height="1.77"/><rect class="cls-60" x="788.34" y="190.31" width="15.91" height="1.77"/><rect class="cls-60" x="788.34" y="201.8" width="28.28" height="1.77"/><rect class="cls-60" x="788.34" y="206.21" width="15.91" height="1.77"/><rect class="cls-60" x="788.34" y="218.59" width="28.28" height="1.77"/><rect class="cls-60" x="788.34" y="223.01" width="15.91" height="1.77"/><circle class="cls-61" cx="781.15" cy="319.39" r="38.15"/><path class="cls-19" d="M800.85,295.64v47a1.45,1.45,0,0,1-1.44,1.44H763a1.45,1.45,0,0,1-1.44-1.44v-47A1.45,1.45,0,0,1,763,294.2h36.39A1.45,1.45,0,0,1,800.85,295.64Z"/><rect class="cls-57" x="766.24" y="308.85" width="6.66" height="6.66"/><rect class="cls-58" x="766.24" y="320.83" width="6.66" height="6.66"/><rect class="cls-59" x="766.24" y="332.81" width="6.66" height="6.66"/><rect class="cls-60" x="774.89" y="308.85" width="21.3" height="1.33"/><rect class="cls-60" x="774.89" y="312.17" width="11.98" height="1.33"/><rect class="cls-60" x="774.89" y="320.83" width="21.3" height="1.33"/><rect class="cls-60" x="774.89" y="324.16" width="11.98" height="1.33"/><rect class="cls-60" x="774.89" y="333.48" width="21.3" height="1.33"/><rect class="cls-60" x="774.89" y="336.8" width="11.98" height="1.33"/><circle class="cls-62" cx="833.36" cy="426.37" r="38.36"/><path class="cls-19" d="M853.17,402.49v47.3a1.45,1.45,0,0,1-1.45,1.45H815.13a1.45,1.45,0,0,1-1.45-1.45v-47.3a1.45,1.45,0,0,1,1.45-1.45h36.59A1.45,1.45,0,0,1,853.17,402.49Z"/><rect class="cls-57" x="818.36" y="415.77" width="6.69" height="6.69"/><rect class="cls-58" x="818.36" y="427.82" width="6.69" height="6.69"/><rect class="cls-59" x="818.36" y="439.86" width="6.69" height="6.69"/><rect class="cls-60" x="827.06" y="415.77" width="21.42" height="1.34"/><rect class="cls-60" x="827.06" y="419.12" width="12.05" height="1.34"/><rect class="cls-60" x="827.06" y="427.82" width="21.42" height="1.34"/><rect class="cls-60" x="827.06" y="431.16" width="12.05" height="1.34"/><rect class="cls-60" x="827.06" y="440.53" width="21.42" height="1.34"/><rect class="cls-60" x="827.06" y="443.88" width="12.05" height="1.34"/><circle class="cls-63" cx="778.54" cy="563.5" r="50.65"/><path class="cls-19" d="M804.69,532v62.45a1.92,1.92,0,0,1-1.91,1.91H754.46a1.92,1.92,0,0,1-1.91-1.91V532a1.92,1.92,0,0,1,1.91-1.91h48.31A1.92,1.92,0,0,1,804.69,532Z"/><rect class="cls-57" x="758.73" y="549.5" width="8.84" height="8.84"/><rect class="cls-58" x="758.73" y="565.41" width="8.84" height="8.84"/><rect class="cls-59" x="758.73" y="581.32" width="8.84" height="8.84"/><rect class="cls-60" x="770.22" y="549.5" width="28.28" height="1.77"/><rect class="cls-60" x="770.22" y="553.92" width="15.91" height="1.77"/><rect class="cls-60" x="770.22" y="565.41" width="28.28" height="1.77"/><rect class="cls-60" x="770.22" y="569.83" width="15.91" height="1.77"/><rect class="cls-60" x="770.22" y="582.2" width="28.28" height="1.77"/><rect class="cls-60" x="770.22" y="586.62" width="15.91" height="1.77"/><path class="cls-54" d="M489.63,236.61a60,60,0,1,0-60-60A60.11,60.11,0,0,0,489.63,236.61Z"/><path class="cls-42" d="M484,162h11.19l.91,9.43,1.61,1.29,3.4,2.16-11.51,27.19-11.51-27.19,3.4-2.16,1.61-1.29L484,162Z"/><path class="cls-44" d="M480.5,173.85l-16.41,5.24a5.86,5.86,0,0,0-2.44,3.24c-4.89,5.24-20.55,22.36-20.55,26.7,0,5.15,13.37,17.55,13.37,18H461v4h58v-4h5.79c0-.42,13.37-12.82,13.37-18,0-4.35-15.66-21.47-20.55-26.7a5.86,5.86,0,0,0-2.44-3.24l-16.3-5.17L497.49,178l-7.86-.38-7.75.38-1.39-4.12Zm-19.69,30h0l2,8.11-.36,8.57-1.67-1.92L455,210.28l5.84-6.43Zm57.64,14.77h0l-1.67,1.81-.36-10,2-6.63,5.84,6.43Z"/><path class="cls-43" d="M480.34,173.41l-2.21.7,11.5,28,11.6-27.89-2.36-.75L493.1,177h-6.92l-5.84-3.59Z"/><path class="cls-47" d="M480.5,173.85,477,175l-.68,9s.19.74.75.67l3.19,1.2a.37.37,0,0,1,0,.47l-2.73,1.87L487,206q1.33.08,2.67.08t2.67-.08l9.45-17.8L499,186.31a.37.37,0,0,1,0-.47l3.19-1.2c.56.07.75-.67.75-.67l-.68-9-3.43-1.09L489.63,201l-9.13-27.18Z"/><path class="cls-41" d="M502.66,143.29c0,.88.32,1.74.3,2.58,3-.56,1.55,8.35-.15,9.58-.13.1-.47-.12-.75-.3-.59,3.28-5.61,12-8.81,15.72-.89,1-6.31,1-7.19,0-3.27-3.6-8.29-12.46-8.88-15.76-.28.18-.61.4-.75.3-1.7-1.23-3.15-10.14-.15-9.58,0-.84.3-1.7.3-2.58.17-6.92,6.44-10.37,13-10.4s12.87,3.48,13,10.4Z"/><path class="cls-40" d="M498.64,134.42a5.08,5.08,0,0,1,4.77,4.55,45.66,45.66,0,0,1,.21,6.95,3.14,3.14,0,0,0-2.25,2.56c-.25,2.05-.07,2.05-.07,2.05l-.72-.16-.52-3.52c-3-1.88,0-4.66-3-5.31-8.09,5.77-15.23,4.78-18.45,2.07,0,0,.75,2.84.17,3.85a4.37,4.37,0,0,0-.23,2.61l-.75,0s.14-4.18-1.53-4.16c-6.35-10.48,13.75-23.5,22.35-11.45Z"/><path class="cls-19" d="M483,170.56a32.42,32.42,0,0,1-2.74,3.35l2.53,8.61,6.79-5c-3.73-1.82-6-4.17-6.58-6.92Z"/><path class="cls-19" d="M496.21,170.56a32.47,32.47,0,0,0,2.74,3.35l-2.53,8.61-6.79-5c3.73-1.82,6-4.17,6.58-6.92Z"/><path class="cls-23" d="M460.22,221.58c3.83,0,6.93,1.93,6.93,4.3s-3.1,4.3-6.93,4.3-6.93-1.93-6.93-4.3S456.39,221.58,460.22,221.58Zm0,1.14h0c-3,0-5.39,1.42-5.39,3.17s2.41,3.17,5.39,3.17,5.39-1.42,5.39-3.17S463.2,222.71,460.22,222.71Z"/><path class="cls-45" d="M460.22,229c3,0,5.39-1.42,5.39-3.17s-2.42-3.17-5.39-3.17-5.39,1.42-5.39,3.17S457.25,229,460.22,229Z"/><path class="cls-46" d="M458,228v3.22a.78.78,0,0,1-.78.78h-1.35s-.78-.42-.87-.85v-5.36c.09-.08.1-.16,1-.24v-1.18c-.88-1,.95-1.37.95-1.37h11.28s1.82.37,1.77,1.37v1.18c.08.07.09.15,1,.24v5.36c-.91.43-1.69.85-1.69.85h-1.53a.78.78,0,0,1-.78-.78V228h-1v3.22a.78.78,0,0,1-.78.78h-1.44a.78.78,0,0,1-.78-.78V228h-1v3.22a.78.78,0,0,1-.78.78h-1.44a.78.78,0,0,1-.78-.78V228Z"/><path class="cls-23" d="M519,221.58c-3.83,0-6.93,1.93-6.93,4.3s3.1,4.3,6.93,4.3,6.93-1.93,6.93-4.3S522.86,221.58,519,221.58Zm0,1.14h0c3,0,5.39,1.42,5.39,3.17S522,229,519,229s-5.39-1.42-5.39-3.17S516.06,222.71,519,222.71Z"/><path class="cls-55" d="M519,229c3,0,5.39-1.42,5.39-3.17s-2.42-3.17-5.39-3.17-5.39,1.42-5.39,3.17S516.06,229,519,229Z"/><path class="cls-46" d="M521,228v3.22a.78.78,0,0,0,.78.78h1.61s.78-.42.61-.85v-5.36c.17-.08.16-.16,1-.24v-1.18a5.62,5.62,0,0,0-2.69-1.37H511s-1.82.37-2,1.37v1.18c.18.07.16.15,1,.24v5.36c-.84.43-.06.85-.06.85h1.27a.78.78,0,0,0,.78-.78V228h1v3.22a.78.78,0,0,0,.78.78h1.44a.78.78,0,0,0,.78-.78V228h1v3.22a.78.78,0,0,0,.78.78h1.44a.78.78,0,0,0,.78-.78V228Z"/><path class="cls-19" d="M458.59,188h61.82a3.6,3.6,0,0,1,3.59,3.59v33.82a3.6,3.6,0,0,1-3.59,3.59H458.59a3.6,3.6,0,0,1-3.59-3.59V191.59A3.6,3.6,0,0,1,458.59,188Z"/><path class="cls-48" d="M456.36,231h66.27a1.37,1.37,0,0,1,1.36,1.36v2.28a1.37,1.37,0,0,1-1.36,1.36H456.36a1.37,1.37,0,0,1-1.36-1.36v-2.27A1.37,1.37,0,0,1,456.36,231Z"/><path class="cls-23" d="M465,229h6v4h-6Zm43,0h6v4h-6Z"/><path class="cls-23" d="M483.13,203h13c.17.65.32.79.87,1v2.94c-.56.17-.7.32-.87.09h-13c-.17.22-.32.08-.13-.09V204C482.81,203.79,483,203.65,483.13,203Z"/></g></svg>